<svg xmlns="http://www.w3.org/2000/svg" xmlns:xlink="http://www.w3.org/1999/xlink" version="1.1" width="481" height="478" viewBox="0 0 481 478" xml:space="preserve"><g transform="matrix(1 0 0 1 240.64 238.72)"  ><path style="stroke: rgb(0,0,0); stroke-width: 0; stroke-dasharray: none; stroke-linecap: butt; stroke-dashoffset: 0; stroke-linejoin: miter; stroke-miterlimit: 4; fill: #e873c4; fill-rule: nonzero; opacity: 1;" vector-effect="non-scaling-stroke"  transform=" translate(-311.13, -239.88)" d="M 72.4 117.60000000000001 L 71.2 379.20000000000005 Q 71.20000000000005 476.8 167.60000000000002 479.6 L 456 479.6 Q 552.4 475.6 549.6 359.6 L 550.4 123.60000000000001 Q 555.6 -3.2000000000000006 433.6 1.6 L 188.8 1.6 Q 66 -0.4000000000000057 72.4 117.60000000000001" stroke-linecap="round" /></g><g transform="matrix(1 0 0 1 240.64 238.72)"  ><linearGradient id="SVGID_857" gradientUnits="userSpaceOnUse" gradientTransform="matrix(1 0 0 1 70.24 0.16)"  x1="240.8926790486091" y1="479.43625644090326" x2="240.8926790486091" y2="0"><stop offset="0%" style="stop-color:rgba(255, 255, 255, 0.14);"/><stop offset="100%" style="stop-color:rgba(255, 255, 255, 0.42);"/></linearGradient><path style="stroke: rgb(0,0,0); stroke-width: 0; stroke-dasharray: none; stroke-linecap: butt; stroke-dashoffset: 0; stroke-linejoin: miter; stroke-miterlimit: 4; fill: url(#SVGID_857); fill-rule: nonzero; opacity: 1;"  transform=" translate(-311.13, -239.88)" d="M 72.4 117.60000000000001 L 71.2 379.20000000000005 Q 71.20000000000005 476.8 167.60000000000002 479.6 L 456 479.6 Q 552.4 475.6 549.6 359.6 L 550.4 123.60000000000001 Q 555.6 -3.2000000000000006 433.6 1.6 L 188.8 1.6 Q 66 -0.4000000000000057 72.4 117.60000000000001" stroke-linecap="round" /></g><g transform="matrix(1.17 0 0 1.17 240.23 244.7)"  ><path style="stroke: rgb(255,255,255); stroke-width: 32; stroke-dasharray: none; stroke-linecap: butt; stroke-dashoffset: 0; stroke-linejoin: miter; stroke-miterlimit: 4; fill: rgb(0,0,0); fill-opacity: 0; fill-rule: nonzero; opacity: 1;" vector-effect="non-scaling-stroke"  transform=" translate(-308.25, -191)" d="M 169.60000000000002 235.20000000000002 L 169.60000000000002 178 Q 171.99999999999994 72.8 301.2 60 Q 431.20000000000005 58.80000000000001 447.20000000000005 178 L 447.20000000000005 229.20000000000002 Q 530 257.6 447.20000000000005 294.8 Q 294.40000000000003 331.59999999999997 169.60000000000002 293.2 Q 86.40000000000003 260.40000000000003 169.60000000000002 229.20000000000002" stroke-linecap="round" /></g><g transform="matrix(1 0 0 1 230.85 318.6)"  ><path style="stroke: rgb(255,255,255); stroke-width: 12; stroke-dasharray: none; stroke-linecap: butt; stroke-dashoffset: 0; stroke-linejoin: miter; stroke-miterlimit: 4; fill: none; fill-rule: nonzero; opacity: 1;" vector-effect="non-scaling-stroke"  transform=" translate(-306.2, -307.8)" d="M 144 281.2 Q 294 352 468.40000000000003 282" stroke-linecap="round" /></g></svg>
